<?xml version="1.0" standalone="no"?>
<!DOCTYPE svg PUBLIC "-//W3C//DTD SVG 20010904//EN"
 "http://www.w3.org/TR/2001/REC-SVG-20010904/DTD/svg10.dtd">
<svg version="1.0" xmlns="http://www.w3.org/2000/svg"
 width="24.000000pt" height="24.000000pt" viewBox="0 0 24.000000 24.000000"
 preserveAspectRatio="xMidYMid meet">

<g transform="translate(0.000000,24.000000) scale(0.100000,-0.100000)"
fill="#000000" stroke="none">
<path d="M12 228 c-16 -16 -16 -200 0 -216 16 -16 200 -16 216 0 16 16 16 200
0 216 -16 16 -200 16 -216 0z m73 -78 c4 -6 -5 -10 -19 -10 -21 0 -26 -5 -26
-26 0 -21 4 -25 20 -21 11 3 22 1 25 -3 9 -14 -14 -22 -41 -16 -19 5 -24 13
-24 40 0 18 3 36 7 39 10 11 51 8 58 -3z m75 0 c0 -5 -10 -11 -22 -11 -17 -1
-19 -2 -5 -6 21 -5 23 -23 2 -23 -8 0 -15 -9 -15 -20 0 -11 -4 -20 -10 -20 -5
0 -10 20 -10 45 0 43 1 45 30 45 17 0 30 -4 30 -10z m30 -25 c0 -28 4 -35 20
-35 11 0 20 -4 20 -10 0 -5 -13 -10 -30 -10 -29 0 -30 2 -30 45 0 25 5 45 10
45 6 0 10 -16 10 -35z"/>
</g>
</svg>
